<svg width="145" height="145" viewBox="0 0 145 145" fill="none" xmlns="http://www.w3.org/2000/svg">
<path fill-rule="evenodd" clip-rule="evenodd" d="M72.0806 32.9999C52.9058 32.9999 37.3751 49.6289 37.3751 70.1597C37.3751 86.6029 47.3096 100.491 61.105 105.415C62.8403 105.74 63.491 104.625 63.491 103.65C63.491 102.767 63.4476 99.841 63.4476 96.7289C54.7279 98.4475 52.472 94.4529 51.7779 92.3626C51.3875 91.2943 49.6956 87.9963 48.2206 87.1138C47.0059 86.4171 45.2706 84.6984 48.1772 84.652C50.9103 84.6055 52.8625 87.346 53.5132 88.4608C56.6367 94.0813 61.6256 92.502 63.6212 91.5265C63.9248 89.1111 64.8359 87.4854 65.8337 86.5564C58.1117 85.6274 50.0426 82.4224 50.0426 68.2088C50.0426 64.1676 51.3875 60.8233 53.6 58.2221C53.2529 57.2931 52.0382 53.4842 53.947 48.3747C53.947 48.3747 56.8536 47.3993 63.491 52.1836C66.2675 51.3475 69.2174 50.9295 72.1674 50.9295C75.1174 50.9295 78.0673 51.3475 80.8438 52.1836C87.4812 47.3528 90.3878 48.3747 90.3878 48.3747C92.2966 53.4842 91.0819 57.2931 90.7349 58.2221C92.9473 60.8233 94.2922 64.1212 94.2922 68.2088C94.2922 82.4688 86.1798 85.6274 78.4578 86.5564C79.7159 87.7176 80.8004 89.9472 80.8004 93.431C80.8004 98.4011 80.757 102.396 80.757 103.65C80.757 104.625 81.4078 105.787 83.143 105.415C90.0326 102.924 96.0193 98.1833 100.261 91.859C104.502 85.5347 106.784 77.9455 106.786 70.1597C106.786 49.6289 91.2554 32.9999 72.0806 32.9999Z" fill="white"/>
<circle cx="72.4375" cy="72.1875" r="71.1875" stroke="white" stroke-width="2"/>
</svg>
