<svg width="145" height="145" viewBox="0 0 145 145" fill="none" xmlns="http://www.w3.org/2000/svg">
<path d="M103.031 91.4966H95.264V57.5144L71.9619 72.0782L48.6597 57.5144V91.4966H40.8924V44.8924H45.5528L71.9619 61.3981L98.3709 44.8924H103.031V91.4966ZM103.031 37.125H40.8924C36.5815 37.125 33.125 40.5815 33.125 44.8924V91.4966C33.125 93.5567 33.9433 95.5323 35.4 96.989C36.8567 98.4457 38.8323 99.264 40.8924 99.264H103.031C105.091 99.264 107.067 98.4457 108.524 96.989C109.98 95.5323 110.799 93.5567 110.799 91.4966V44.8924C110.799 42.8323 109.98 40.8567 108.524 39.4C107.067 37.9433 105.091 37.125 103.031 37.125Z" fill="white"/>
<circle cx="72.3125" cy="72.1875" r="71.1875" stroke="white" stroke-width="2"/>
</svg>
