<svg width="145" height="145" viewBox="0 0 145 145" fill="none" xmlns="http://www.w3.org/2000/svg">
<path d="M52.8959 56.0791V104.028H37.9837V56.0791H52.8959ZM53.8449 41.2736C53.875 43.6283 53.1143 45.5959 51.5628 47.1764C50.0114 48.757 47.9704 49.5472 45.4398 49.5472H45.3494C42.8791 49.5472 40.8908 48.757 39.3845 47.1764C37.8783 45.5959 37.1251 43.6283 37.1251 41.2736C37.1251 38.8866 37.9009 36.9109 39.4523 35.3465C41.0038 33.7821 43.0297 32.9999 45.5302 32.9999C48.0306 32.9999 50.034 33.7821 51.5402 35.3465C53.0465 36.9109 53.8147 38.8866 53.8449 41.2736ZM106.535 76.5456V104.028H91.6676V78.3842C91.6676 74.9973 91.0575 72.3442 89.8375 70.425C88.6174 68.5057 86.7119 67.5461 84.1211 67.5461C82.2232 67.5461 80.6341 68.1025 79.3537 69.2154C78.0734 70.3282 77.1169 71.7072 76.4843 73.3522C76.1529 74.3199 75.9872 75.6263 75.9872 77.2713V104.028H61.1202C61.1804 91.1576 61.2106 80.7227 61.2106 72.7232C61.2106 64.7237 61.1955 59.9498 61.1654 58.4015L61.1202 56.0791H75.9872V63.0464H75.8968C76.4993 62.0142 77.1169 61.111 77.7495 60.3369C78.3822 59.5627 79.2332 58.7241 80.3027 57.8209C81.3722 56.9177 82.6826 56.2162 84.2341 55.7162C85.7856 55.2162 87.5103 54.9663 89.4082 54.9663C94.5597 54.9663 98.7019 56.7968 101.835 60.4579C104.968 64.1189 106.535 69.4815 106.535 76.5456Z" fill="white"/>
<circle cx="72.1875" cy="72.1875" r="71.1875" stroke="white" stroke-width="2"/>
</svg>
