<svg width="56" height="56" viewBox="0 0 56 56" fill="none" xmlns="http://www.w3.org/2000/svg">
<path d="M28 3.5C14.4703 3.5 3.5 14.4703 3.5 28C3.5 41.5297 14.4703 52.5 28 52.5C41.5297 52.5 52.5 41.5297 52.5 28C52.5 14.4703 41.5297 3.5 28 3.5ZM39.7742 21.968C39.7906 22.225 39.7906 22.493 39.7906 22.7555C39.7906 30.7836 33.6766 40.0312 22.5039 40.0312C19.0586 40.0312 15.8648 39.0305 13.1742 37.3078C13.6664 37.3625 14.1367 37.3844 14.6398 37.3844C17.4836 37.3844 20.0977 36.4219 22.1813 34.7922C19.5125 34.7375 17.2703 32.9875 16.5047 30.5813C17.4398 30.718 18.282 30.718 19.2445 30.4719C17.8704 30.1927 16.6353 29.4464 15.749 28.3598C14.8627 27.2731 14.38 25.9132 14.3828 24.5109V24.4344C15.1867 24.8883 16.1328 25.1672 17.1227 25.2055C16.2905 24.6509 15.6081 23.8996 15.1359 23.0181C14.6637 22.1367 14.4163 21.1523 14.4156 20.1523C14.4156 19.0203 14.7109 17.9867 15.2414 17.0898C16.7667 18.9675 18.6699 20.5031 20.8275 21.597C22.9851 22.6909 25.3488 23.3185 27.7648 23.4391C26.9063 19.3102 29.9906 15.9688 33.6984 15.9688C35.4484 15.9688 37.0234 16.7016 38.1336 17.8828C39.5062 17.6258 40.8187 17.1117 41.9891 16.4227C41.5352 17.8281 40.5836 19.0148 39.3203 19.7641C40.5453 19.6328 41.7266 19.2938 42.8203 18.818C41.9945 20.032 40.9609 21.1094 39.7742 21.968V21.968Z" fill="#0082F2"/>
</svg>
