<svg width="145" height="145" viewBox="0 0 145 145" fill="none" xmlns="http://www.w3.org/2000/svg">
<path d="M81.7133 84.4074V93.1268C81.7133 94.9727 81.1044 95.8956 79.8867 95.8956C79.1685 95.8956 78.466 95.5925 77.779 94.9864V82.5478C78.466 81.9417 79.1685 81.6387 79.8867 81.6387C81.1044 81.6387 81.7133 82.5616 81.7133 84.4074ZM97.5439 84.4487V86.3497H93.3286V84.4487C93.3286 82.5754 94.0312 81.6387 95.4363 81.6387C96.8413 81.6387 97.5439 82.5754 97.5439 84.4487ZM52.3002 75.44H57.3117V71.5556H42.6988V75.44H47.6166V98.9536H52.3002V75.44ZM65.789 98.9536H69.9574V78.5394H65.789V94.1599C64.8523 95.317 63.9624 95.8956 63.1193 95.8956C62.5573 95.8956 62.2295 95.6063 62.1358 95.0278C62.1046 94.9451 62.089 94.463 62.089 93.5814V78.5394H57.9205V94.6972C57.9205 96.0471 58.0454 97.0526 58.2952 97.7138C58.6699 98.7332 59.5754 99.2428 61.0117 99.2428C62.5105 99.2428 64.1029 98.4026 65.789 96.722V98.9536ZM85.8817 92.8376V84.6967C85.8817 82.6856 85.7412 81.3219 85.4602 80.6056C84.9294 79.0628 83.8209 78.2914 82.1348 78.2914C80.5736 78.2914 79.1217 79.0353 77.779 80.5229V71.5556H73.6106V98.9536H77.779V96.97C79.1841 98.4852 80.636 99.2428 82.1348 99.2428C83.8209 99.2428 84.9294 98.4852 85.4602 96.97C85.7412 96.2262 85.8817 94.8487 85.8817 92.8376ZM101.712 92.4243V91.8871H97.4502C97.4502 93.2921 97.419 94.1324 97.3565 94.4079C97.138 95.3997 96.5135 95.8956 95.4831 95.8956C94.0468 95.8956 93.3286 94.9451 93.3286 93.0442V89.449H101.712V85.1926C101.712 83.0162 101.291 81.4183 100.448 80.399C99.23 78.9939 97.5751 78.2914 95.4831 78.2914C93.3599 78.2914 91.6894 78.9939 90.4716 80.399C89.5974 81.4183 89.1602 83.0162 89.1602 85.1926V92.3417C89.1602 94.5181 89.613 96.116 90.5185 97.1353C91.7362 98.5403 93.4223 99.2428 95.5768 99.2428C97.8249 99.2428 99.511 98.5128 100.635 97.0526C101.197 96.3088 101.525 95.565 101.619 94.8211C101.681 94.5732 101.712 93.7742 101.712 92.4243ZM73.2359 54.6952V46.0171C73.2359 44.1162 72.5646 43.1658 71.222 43.1658C69.8794 43.1658 69.208 44.1162 69.208 46.0171V54.6952C69.208 56.6237 69.8794 57.5879 71.222 57.5879C72.5646 57.5879 73.2359 56.6237 73.2359 54.6952ZM106.911 85.7298C106.911 92.1764 106.505 96.9975 105.693 100.193C105.256 101.819 104.351 103.182 102.977 104.284C101.603 105.386 100.011 106.02 98.1996 106.185C92.4544 106.764 83.7897 107.053 72.2056 107.053C60.6214 107.053 51.9567 106.764 46.2115 106.185C44.4005 106.02 42.8003 105.386 41.4108 104.284C40.0213 103.182 39.1237 101.819 38.7177 100.193C37.9059 97.1077 37.5 92.2866 37.5 85.7298C37.5 79.2832 37.9059 74.462 38.7177 71.2663C39.1549 69.6409 40.0604 68.2772 41.4342 67.1752C42.8081 66.0732 44.4161 65.4258 46.2584 65.2329C51.9724 64.682 60.6214 64.4065 72.2056 64.4065C83.7897 64.4065 92.4544 64.682 98.1996 65.2329C100.011 65.4258 101.611 66.0732 103 67.1752C104.39 68.2772 105.287 69.6409 105.693 71.2663C106.505 74.3518 106.911 79.173 106.911 85.7298ZM60.1687 33H64.946L59.2788 49.4884V60.6873H54.5952V49.4884C54.158 47.4497 53.2057 44.5295 51.7382 40.7276C50.5829 37.89 49.5681 35.3142 48.6938 33H53.6585L56.9838 43.8683L60.1687 33ZM77.498 46.761V53.9927C77.498 56.2242 77.0609 57.8497 76.1866 58.869C75.0001 60.274 73.3452 60.9765 71.222 60.9765C69.13 60.9765 67.4907 60.274 66.3042 58.869C65.4299 57.8221 64.9928 56.1967 64.9928 53.9927V46.761C64.9928 44.557 65.4299 42.9454 66.3042 41.926C67.4907 40.521 69.13 39.8185 71.222 39.8185C73.3452 39.8185 75.0001 40.521 76.1866 41.926C77.0609 42.9454 77.498 44.557 77.498 46.761ZM93.1881 40.0665V60.6873H88.926V58.4144C87.2712 60.1225 85.6631 60.9765 84.1019 60.9765C82.6656 60.9765 81.7445 60.4669 81.3386 59.4475C81.0888 58.7864 80.9639 57.7532 80.9639 56.3482V40.0665H85.226V55.2325C85.226 56.1416 85.2416 56.6237 85.2728 56.6788C85.3665 57.2849 85.6943 57.5879 86.2564 57.5879C87.0994 57.5879 87.9893 56.9956 88.926 55.811V40.0665H93.1881Z" fill="white"/>
<circle cx="72.5625" cy="72.1875" r="71.1875" stroke="white" stroke-width="2"/>
</svg>
