<svg width="50" height="35" viewBox="0 0 50 35" fill="none" xmlns="http://www.w3.org/2000/svg">
<g clip-path="url(#clip0)">
<path d="M48.8957 5.44834C48.609 4.39527 48.0495 3.43521 47.2732 2.66378C46.4968 1.89234 45.5306 1.33644 44.4707 1.05144C40.5907 0 24.9747 0 24.9747 0C24.9747 0 9.35785 0.0318264 5.47777 1.08326C4.41791 1.36829 3.45169 1.92421 2.67532 2.69568C1.89895 3.46716 1.33953 4.42725 1.05277 5.48036C-0.120861 12.3304 -0.576134 22.7684 1.085 29.3444C1.37179 30.3975 1.93122 31.3575 2.70759 32.129C3.48395 32.9004 4.45016 33.4563 5.51 33.7413C9.39008 34.7928 25.0065 34.7928 25.0065 34.7928C25.0065 34.7928 40.6227 34.7928 44.5026 33.7413C45.5625 33.4563 46.5287 32.9005 47.3051 32.129C48.0815 31.3576 48.641 30.3975 48.9278 29.3444C50.1657 22.4846 50.5471 12.0533 48.8957 5.44854V5.44834Z" fill="#FF0000"/>
<path d="M20.0039 24.8518L32.9588 17.3963L20.0041 9.94073L20.0039 24.8518Z" fill="white"/>
</g>
<defs>
<clipPath id="clip0">
<rect width="50" height="34.9315" fill="white"/>
</clipPath>
</defs>
</svg>
