<svg width="65" height="65" viewBox="0 0 65 65" fill="none" xmlns="http://www.w3.org/2000/svg">
<path d="M43.3333 43.3334C49.3164 43.3334 54.1667 38.4831 54.1667 32.5C54.1667 26.5169 49.3164 21.6667 43.3333 21.6667C37.3502 21.6667 32.5 26.5169 32.5 32.5C32.5 38.4831 37.3502 43.3334 43.3333 43.3334Z" fill="#19BCFE"/>
<path fill-rule="evenodd" clip-rule="evenodd" d="M21.6667 65C24.5399 65 27.2954 63.8586 29.327 61.827C31.3587 59.7953 32.5 57.0398 32.5 54.1666V43.3333H21.6667C18.7935 43.3333 16.038 44.4747 14.0064 46.5063C11.9747 48.538 10.8334 51.2935 10.8334 54.1666C10.8334 57.0398 11.9747 59.7953 14.0064 61.827C16.038 63.8586 18.7935 65 21.6667 65Z" fill="#09CF83"/>
<path fill-rule="evenodd" clip-rule="evenodd" d="M21.6667 43.3334H32.5V21.6667H21.6667C18.7935 21.6667 16.038 22.8081 14.0064 24.8397C11.9747 26.8713 10.8334 29.6268 10.8334 32.5C10.8334 35.3732 11.9747 38.1287 14.0064 40.1604C16.038 42.192 18.7935 43.3334 21.6667 43.3334Z" fill="#A259FF"/>
<path fill-rule="evenodd" clip-rule="evenodd" d="M21.6667 21.6667H32.5V0H21.6667C18.7935 0 16.038 1.14137 14.0064 3.17301C11.9747 5.20465 10.8334 7.96016 10.8334 10.8333C10.8334 13.7065 11.9747 16.462 14.0064 18.4937C16.038 20.5253 18.7935 21.6667 21.6667 21.6667Z" fill="#F24E1E"/>
<path fill-rule="evenodd" clip-rule="evenodd" d="M43.3333 21.6667H32.5V0H43.3333C46.2065 0 48.962 1.14137 50.9937 3.17301C53.0253 5.20465 54.1667 7.96016 54.1667 10.8333C54.1667 13.7065 53.0253 16.462 50.9937 18.4937C48.962 20.5253 46.2065 21.6667 43.3333 21.6667Z" fill="#FF7262"/>
</svg>
