<svg width="65" height="65" viewBox="0 0 65 65" fill="none" xmlns="http://www.w3.org/2000/svg">
<path d="M32.224 0.0180054C15.7628 0.0180054 16.7906 7.18457 16.7906 7.18457L16.8089 14.6094H32.5175V16.8385H10.5696C10.5696 16.8385 0.0360718 15.6392 0.0360718 32.3136C0.0360718 48.9885 9.23002 48.3971 9.23002 48.3971H14.7169V40.6593C14.7169 40.6593 14.4211 31.4293 23.7641 31.4293H39.3443C39.3443 31.4293 48.0977 31.5713 48.0977 22.9362V8.65867C48.0977 8.65867 49.4272 0.0180054 32.224 0.0180054ZM23.5623 5.01102C23.9335 5.01069 24.3011 5.08384 24.6441 5.2263C24.9871 5.36876 25.2988 5.57772 25.5613 5.84123C25.8238 6.10474 26.0319 6.41763 26.1738 6.76199C26.3157 7.10635 26.3886 7.47542 26.3882 7.84808C26.3886 8.22075 26.3157 8.58982 26.1738 8.93418C26.0319 9.27853 25.8238 9.59142 25.5613 9.85493C25.2988 10.1184 24.9871 10.3274 24.6441 10.4699C24.3011 10.6123 23.9335 10.6855 23.5623 10.6851C23.1911 10.6855 22.8234 10.6123 22.4804 10.4699C22.1374 10.3274 21.8257 10.1184 21.5632 9.85493C21.3008 9.59142 21.0926 9.27853 20.9507 8.93418C20.8088 8.58982 20.736 8.22075 20.7363 7.84808C20.736 7.47542 20.8088 7.10635 20.9507 6.76199C21.0926 6.41763 21.3008 6.10474 21.5632 5.84123C21.8257 5.57772 22.1374 5.36876 22.4804 5.2263C22.8234 5.08384 23.1911 5.01069 23.5623 5.01102Z" fill="url(#paint0_linear)"/>
<path d="M32.5695 64.7772C49.0308 64.7772 48.003 57.6107 48.003 57.6107L47.9847 50.1861H32.2758V47.957H54.2237C54.2237 47.957 64.7572 49.1563 64.7572 32.4814C64.7572 15.8067 55.5633 16.3981 55.5633 16.3981H50.0764V24.1357C50.0764 24.1357 50.3722 33.3657 41.0292 33.3657H25.449C25.449 33.3657 16.6956 33.2237 16.6956 41.859V56.1368C16.6956 56.1368 15.3664 64.7772 32.5693 64.7772H32.5695ZM41.2313 59.7847C40.8601 59.785 40.4924 59.7119 40.1494 59.5694C39.8064 59.427 39.4948 59.218 39.2323 58.9545C38.9698 58.691 38.7616 58.3781 38.6197 58.0337C38.4778 57.6894 38.405 57.3203 38.4053 56.9477C38.4049 56.575 38.4778 56.2059 38.6197 55.8615C38.7616 55.5171 38.9697 55.2042 39.2322 54.9406C39.4947 54.6771 39.8063 54.4681 40.1494 54.3256C40.4924 54.1832 40.8601 54.11 41.2313 54.1103C41.6025 54.11 41.9701 54.1832 42.3131 54.3256C42.6561 54.4681 42.9678 54.677 43.2303 54.9405C43.4928 55.2041 43.7009 55.5169 43.8428 55.8613C43.9847 56.2057 44.0576 56.5747 44.0573 56.9474C44.0576 57.3201 43.9847 57.6891 43.8428 58.0335C43.7009 58.3778 43.4928 58.6907 43.2303 58.9543C42.9678 59.2178 42.6561 59.4267 42.3131 59.5692C41.9701 59.7116 41.6025 59.7848 41.2313 59.7845V59.7847Z" fill="url(#paint1_linear)"/>
<defs>
<linearGradient id="paint0_linear" x1="6.26747" y1="5.84268" x2="38.5262" y2="37.6549" gradientUnits="userSpaceOnUse">
<stop stop-color="#387EB8"/>
<stop offset="1" stop-color="#366994"/>
</linearGradient>
<linearGradient id="paint1_linear" x1="25.8695" y1="26.352" x2="60.5055" y2="58.9665" gradientUnits="userSpaceOnUse">
<stop stop-color="#FFE052"/>
<stop offset="1" stop-color="#FFC331"/>
</linearGradient>
</defs>
</svg>
