<svg width="70" height="70" viewBox="0 0 70 70" fill="none" xmlns="http://www.w3.org/2000/svg">
<g clip-path="url(#clip0_540_2)">
<path d="M10.1136 54.7985C9.70352 55.149 9.20424 55.3788 8.67132 55.4625C8.13839 55.5462 7.59269 55.4805 7.09488 55.2727L1.79375 53.0485C1.26502 52.8279 0.812943 52.4566 0.493946 51.9807C0.174949 51.5048 0.0031544 50.9455 0 50.3727L0 19.2664C0.00310082 18.6935 0.17487 18.1341 0.49387 17.6582C0.812871 17.1823 1.26497 16.8109 1.79375 16.5903L7.09488 14.4028C7.59266 14.1949 8.13835 14.1291 8.67128 14.2127C9.2042 14.2964 9.70349 14.5262 10.1136 14.8766L11.302 15.861C11.061 15.6877 10.7768 15.5844 10.4807 15.5624C10.1847 15.5404 9.88836 15.6006 9.62438 15.7364C9.36041 15.8721 9.13906 16.0782 8.98477 16.3318C8.83047 16.5854 8.74923 16.8767 8.75 17.1735V52.4653C8.74923 52.7621 8.83047 53.0534 8.98477 53.307C9.13906 53.5606 9.36041 53.7666 9.62438 53.9024C9.88836 54.0382 10.1847 54.0984 10.4807 54.0764C10.7768 54.0544 11.061 53.9511 11.302 53.7778L10.1136 54.7985V54.7985Z" fill="#52218A"/>
<path d="M1.79375 53.0485C1.26502 52.828 0.812943 52.4566 0.493946 51.9807C0.174949 51.5048 0.0031544 50.9455 0 50.3727L0 50.132C0.00359301 50.4687 0.108001 50.7966 0.29975 51.0733C0.491499 51.3501 0.761789 51.563 1.07574 51.6847C1.38969 51.8063 1.73289 51.8311 2.06105 51.7558C2.38921 51.6804 2.68726 51.5085 2.91676 51.2622L48.125 1.27778C48.7652 0.640732 49.5869 0.217447 50.4773 0.0660212C51.3677 -0.0854051 52.2832 0.0424493 53.098 0.432036L67.5207 7.37352C68.2637 7.73071 68.8906 8.29053 69.3292 8.98847C69.7678 9.68641 70.0004 10.4941 70 11.3184V11.486C69.9995 10.9631 69.8507 10.451 69.5708 10.0093C69.2908 9.56761 68.8914 9.21438 68.4187 8.99066C67.946 8.76694 67.4196 8.68192 66.9005 8.74546C66.3815 8.80901 65.8911 9.01852 65.4864 9.34965L11.302 53.7778L10.1136 54.7985C9.70352 55.149 9.20425 55.3788 8.67132 55.4626C8.13839 55.5463 7.59269 55.4805 7.09488 55.2727L1.79375 53.0485Z" fill="#6C33AF"/>
<path d="M1.79375 16.5903C1.26497 16.8109 0.812871 17.1823 0.493871 17.6582C0.17487 18.1341 0.00310082 18.6935 0 19.2664L0 19.507C0.0035392 19.1703 0.107908 18.8424 0.299637 18.5656C0.491365 18.2888 0.761653 18.0759 1.07561 17.9542C1.38957 17.8325 1.7328 17.8077 2.06098 17.883C2.38917 17.9583 2.68725 18.1303 2.91676 18.3767L48.125 68.361C48.7652 68.9981 49.5869 69.4215 50.4773 69.5729C51.3677 69.7244 52.2831 69.5966 53.098 69.207L67.5207 62.2653C68.2637 61.9081 68.8906 61.3483 69.3292 60.6503C69.7678 59.9524 70.0004 59.1447 70 58.3204V58.1528C69.9995 58.6757 69.8507 59.1878 69.5708 59.6295C69.2908 60.0712 68.8914 60.4244 68.4187 60.6481C67.946 60.8719 67.4196 60.9569 66.9005 60.8933C66.3815 60.8298 65.8911 60.6203 65.4864 60.2891L11.302 15.861L10.1136 14.8403C9.69985 14.4959 9.19881 14.2727 8.66601 14.1955C8.1332 14.1183 7.58942 14.19 7.09488 14.4028L1.79375 16.5903V16.5903Z" fill="#854CC7"/>
<path d="M53.098 69.207C52.2831 69.5966 51.3677 69.7244 50.4773 69.5729C49.5869 69.4215 48.7652 68.9981 48.125 68.361C48.4844 68.7177 48.9412 68.9602 49.438 69.0579C49.9348 69.1556 50.4494 69.1042 50.9171 68.9101C51.3848 68.716 51.7846 68.3879 52.0662 67.9672C52.3479 67.5464 52.4988 67.0517 52.5 66.5454V3.1079C52.5017 2.60033 52.3528 2.10366 52.0723 1.68068C51.7917 1.25769 51.392 0.927388 50.9238 0.731512C50.4555 0.535637 49.9397 0.482987 49.4416 0.58022C48.9434 0.677452 48.4852 0.9202 48.125 1.27778C48.7652 0.640732 49.5869 0.217448 50.4773 0.0660212C51.3677 -0.0854051 52.2832 0.0424493 53.098 0.432036L67.5207 7.36641C68.2636 7.72358 68.8905 8.28336 69.3291 8.98125C69.7678 9.67913 70.0003 10.4867 70 11.311V58.3278C70.0004 59.1521 69.7678 59.9598 69.3292 60.6577C68.8906 61.3557 68.2637 61.9155 67.5207 62.2727L53.098 69.207V69.207Z" fill="#B179F1"/>
<path d="M50.2324 69.5278C51.1964 69.7478 52.2065 69.6347 53.098 69.207L67.5207 62.2727C68.2637 61.9155 68.8906 61.3557 69.3292 60.6577C69.7678 59.9598 70.0004 59.1521 70 58.3278V11.311C70.0003 10.4867 69.7678 9.67913 69.3291 8.98124C68.8905 8.28336 68.2636 7.72358 67.5207 7.36641L53.098 0.432034C52.0775 -0.0585987 50.9065 -0.134462 49.8313 0.220393C49.1882 0.435851 48.6041 0.797839 48.125 1.27778L24.8793 26.9883L11.302 15.861L10.1136 14.8403C9.75615 14.5347 9.33007 14.32 8.87171 14.2146C8.41335 14.1093 7.9363 14.1163 7.48125 14.2352C7.34804 14.2646 7.21847 14.3086 7.09488 14.3664L1.79375 16.5903C1.29758 16.7952 0.867582 17.133 0.551093 17.5666C0.234605 18.0001 0.0439074 18.5127 0 19.0477L0 50.5914C0.0438655 51.1264 0.23455 51.6389 0.551047 52.0724C0.867544 52.506 1.29757 52.8437 1.79375 53.0485L7.09488 55.236C7.21847 55.2938 7.34804 55.3378 7.48125 55.3673C8.40492 55.6084 9.38793 55.3826 10.1136 54.7622L11.302 53.7778L24.8793 42.6508L48.125 68.361C48.7044 68.9395 49.4346 69.3437 50.2324 69.5278ZM52.5 20.0028L34.4239 34.8195L52.5 49.636V20.0028ZM8.75 24.8079L17.7989 34.8195L8.75 44.8309V24.8079Z" fill="url(#paint0_linear_540_2)" fill-opacity="0.25"/>
</g>
<defs>
<linearGradient id="paint0_linear_540_2" x1="35" y1="0.00139275" x2="35" y2="69.6374" gradientUnits="userSpaceOnUse">
<stop stop-color="white"/>
<stop offset="1" stop-color="white" stop-opacity="0"/>
</linearGradient>
<clipPath id="clip0_540_2">
<rect width="70" height="70" fill="white"/>
</clipPath>
</defs>
</svg>
